<mxfile host="app.diagrams.net" agent="Mozilla/5.0 (Windows NT 10.0; Win64; x64) AppleWebKit/537.36 (KHTML, like Gecko) Chrome/129.0.0.0 Safari/537.36" version="24.7.17">
  <diagram name="PÃ¡gina-1" id="dtz_bGJf7wTYpkM9wEOq">
    <mxGraphModel dx="2392" dy="552" grid="1" gridSize="10" guides="1" tooltips="1" connect="1" arrows="1" fold="1" page="1" pageScale="1" pageWidth="827" pageHeight="1169" math="0" shadow="0">
      <root>
        <mxCell id="0" />
        <mxCell id="1" parent="0" />
        <mxCell id="aTo8OEUiMumtNz0-kFa5-20" style="edgeStyle=orthogonalEdgeStyle;rounded=0;orthogonalLoop=1;jettySize=auto;html=1;" edge="1" parent="1" source="Ruj3YEUKWDcstiGsCauB-1" target="aTo8OEUiMumtNz0-kFa5-4">
          <mxGeometry relative="1" as="geometry" />
        </mxCell>
        <mxCell id="Ruj3YEUKWDcstiGsCauB-1" value="Pagina&amp;nbsp;&lt;div&gt;de&amp;nbsp;&lt;/div&gt;&lt;div&gt;REDIRECIONAMENTO&lt;/div&gt;" style="rounded=0;whiteSpace=wrap;html=1;" parent="1" vertex="1">
          <mxGeometry x="280" y="60" width="120" height="160" as="geometry" />
        </mxCell>
        <mxCell id="aTo8OEUiMumtNz0-kFa5-10" style="edgeStyle=orthogonalEdgeStyle;rounded=0;orthogonalLoop=1;jettySize=auto;html=1;" edge="1" parent="1" source="Ruj3YEUKWDcstiGsCauB-6" target="aTo8OEUiMumtNz0-kFa5-1">
          <mxGeometry relative="1" as="geometry" />
        </mxCell>
        <mxCell id="aTo8OEUiMumtNz0-kFa5-18" value="" style="edgeStyle=orthogonalEdgeStyle;rounded=0;orthogonalLoop=1;jettySize=auto;html=1;" edge="1" parent="1" source="Ruj3YEUKWDcstiGsCauB-6" target="aTo8OEUiMumtNz0-kFa5-17">
          <mxGeometry relative="1" as="geometry" />
        </mxCell>
        <mxCell id="Ruj3YEUKWDcstiGsCauB-6" value="N8N" style="ellipse;whiteSpace=wrap;html=1;" parent="1" vertex="1">
          <mxGeometry x="30" y="300" width="120" height="80" as="geometry" />
        </mxCell>
        <mxCell id="aTo8OEUiMumtNz0-kFa5-1" value="" style="shape=cylinder3;whiteSpace=wrap;html=1;boundedLbl=1;backgroundOutline=1;size=15;" vertex="1" parent="1">
          <mxGeometry x="60" y="450" width="60" height="80" as="geometry" />
        </mxCell>
        <mxCell id="aTo8OEUiMumtNz0-kFa5-21" style="edgeStyle=orthogonalEdgeStyle;rounded=0;orthogonalLoop=1;jettySize=auto;html=1;" edge="1" parent="1" source="aTo8OEUiMumtNz0-kFa5-4" target="aTo8OEUiMumtNz0-kFa5-12">
          <mxGeometry relative="1" as="geometry" />
        </mxCell>
        <mxCell id="aTo8OEUiMumtNz0-kFa5-4" value="LinkVertise" style="rounded=0;whiteSpace=wrap;html=1;" vertex="1" parent="1">
          <mxGeometry x="560" y="60" width="120" height="160" as="geometry" />
        </mxCell>
        <mxCell id="aTo8OEUiMumtNz0-kFa5-26" value="" style="edgeStyle=orthogonalEdgeStyle;rounded=0;orthogonalLoop=1;jettySize=auto;html=1;" edge="1" parent="1" source="aTo8OEUiMumtNz0-kFa5-12" target="aTo8OEUiMumtNz0-kFa5-25">
          <mxGeometry relative="1" as="geometry" />
        </mxCell>
        <mxCell id="aTo8OEUiMumtNz0-kFa5-12" value="SITE" style="rounded=0;whiteSpace=wrap;html=1;" vertex="1" parent="1">
          <mxGeometry x="560" y="260" width="120" height="160" as="geometry" />
        </mxCell>
        <mxCell id="aTo8OEUiMumtNz0-kFa5-14" style="edgeStyle=orthogonalEdgeStyle;rounded=0;orthogonalLoop=1;jettySize=auto;html=1;" edge="1" parent="1" source="aTo8OEUiMumtNz0-kFa5-13" target="Ruj3YEUKWDcstiGsCauB-6">
          <mxGeometry relative="1" as="geometry" />
        </mxCell>
        <mxCell id="aTo8OEUiMumtNz0-kFa5-13" value="&lt;h1 style=&quot;margin-top: 0px;&quot;&gt;Scrap + BD&lt;/h1&gt;&lt;p&gt;O n8n faz o papel de scrap da pagina e salva os dados no banco de dados periodicamente&lt;/p&gt;" style="text;html=1;whiteSpace=wrap;overflow=hidden;rounded=0;" vertex="1" parent="1">
          <mxGeometry x="-280" y="230" width="180" height="120" as="geometry" />
        </mxCell>
        <mxCell id="aTo8OEUiMumtNz0-kFa5-16" style="edgeStyle=orthogonalEdgeStyle;rounded=0;orthogonalLoop=1;jettySize=auto;html=1;" edge="1" parent="1" source="aTo8OEUiMumtNz0-kFa5-15" target="Ruj3YEUKWDcstiGsCauB-6">
          <mxGeometry relative="1" as="geometry" />
        </mxCell>
        <mxCell id="aTo8OEUiMumtNz0-kFa5-15" value="&lt;h1 style=&quot;margin-top: 0px;&quot;&gt;&lt;span style=&quot;background-color: initial;&quot;&gt;Postar conteudo&lt;/span&gt;&lt;/h1&gt;&lt;h1 style=&quot;margin-top: 0px;&quot;&gt;&lt;span style=&quot;background-color: initial; font-size: 12px; font-weight: normal;&quot;&gt;O n8n faz o papel de scrap da pagina e salva os dados no banco de dados periodicamente&lt;/span&gt;&lt;br&gt;&lt;/h1&gt;" style="text;html=1;whiteSpace=wrap;overflow=hidden;rounded=0;" vertex="1" parent="1">
          <mxGeometry x="-280" y="360" width="220" height="200" as="geometry" />
        </mxCell>
        <mxCell id="aTo8OEUiMumtNz0-kFa5-19" style="edgeStyle=orthogonalEdgeStyle;rounded=0;orthogonalLoop=1;jettySize=auto;html=1;" edge="1" parent="1" source="aTo8OEUiMumtNz0-kFa5-17" target="Ruj3YEUKWDcstiGsCauB-1">
          <mxGeometry relative="1" as="geometry" />
        </mxCell>
        <mxCell id="aTo8OEUiMumtNz0-kFa5-17" value="POSTAR NO WORDPRESS&lt;br&gt;&lt;br&gt;COM O LINK" style="whiteSpace=wrap;html=1;" vertex="1" parent="1">
          <mxGeometry x="30" y="110" width="120" height="60" as="geometry" />
        </mxCell>
        <mxCell id="aTo8OEUiMumtNz0-kFa5-27" style="edgeStyle=orthogonalEdgeStyle;rounded=0;orthogonalLoop=1;jettySize=auto;html=1;" edge="1" parent="1" source="aTo8OEUiMumtNz0-kFa5-25" target="Ruj3YEUKWDcstiGsCauB-6">
          <mxGeometry relative="1" as="geometry" />
        </mxCell>
        <mxCell id="aTo8OEUiMumtNz0-kFa5-25" value="CONTEUDO" style="ellipse;whiteSpace=wrap;html=1;rounded=0;" vertex="1" parent="1">
          <mxGeometry x="300" y="300" width="80" height="80" as="geometry" />
        </mxCell>
      </root>
    </mxGraphModel>
  </diagram>
</mxfile>
